<mxfile host="app.diagrams.net" modified="2020-06-08T07:17:37.716Z" agent="5.0 (Windows NT 10.0; Win64; x64) AppleWebKit/537.36 (KHTML, like Gecko) Chrome/83.0.4103.61 Safari/537.36" etag="DsFlPYLO0M-7wFjEeNGB" version="13.1.14" type="github">
  <diagram id="CqEtraTenlA_N6H4eD-H" name="Page-1">
    <mxGraphModel dx="868" dy="450" grid="1" gridSize="10" guides="1" tooltips="1" connect="1" arrows="1" fold="1" page="1" pageScale="1" pageWidth="850" pageHeight="1100" math="0" shadow="0">
      <root>
        <mxCell id="0" />
        <mxCell id="1" parent="0" />
        <mxCell id="PUXEqd44bCyLoYofm2tb-18" style="edgeStyle=orthogonalEdgeStyle;rounded=0;orthogonalLoop=1;jettySize=auto;html=1;entryX=0.5;entryY=0;entryDx=0;entryDy=0;" parent="1" source="PUXEqd44bCyLoYofm2tb-2" target="PUXEqd44bCyLoYofm2tb-17" edge="1">
          <mxGeometry relative="1" as="geometry" />
        </mxCell>
        <mxCell id="PUXEqd44bCyLoYofm2tb-2" value="Catalyst&lt;br&gt;REST Funtion" style="ellipse;whiteSpace=wrap;html=1;" parent="1" vertex="1">
          <mxGeometry x="196.5" y="280" width="120" height="80" as="geometry" />
        </mxCell>
        <mxCell id="PUXEqd44bCyLoYofm2tb-14" style="edgeStyle=orthogonalEdgeStyle;rounded=0;orthogonalLoop=1;jettySize=auto;html=1;" parent="1" source="PUXEqd44bCyLoYofm2tb-4" target="PUXEqd44bCyLoYofm2tb-13" edge="1">
          <mxGeometry relative="1" as="geometry">
            <Array as="points">
              <mxPoint x="259" y="780" />
              <mxPoint x="160" y="780" />
            </Array>
          </mxGeometry>
        </mxCell>
        <mxCell id="PUXEqd44bCyLoYofm2tb-4" value="Cliq slash command&lt;br&gt;or&amp;nbsp;&lt;br&gt;message action&amp;nbsp;" style="rounded=1;whiteSpace=wrap;html=1;" parent="1" vertex="1">
          <mxGeometry x="199" y="700" width="120" height="60" as="geometry" />
        </mxCell>
        <mxCell id="PUXEqd44bCyLoYofm2tb-5" value="" style="endArrow=classic;html=1;entryX=0.5;entryY=1;entryDx=0;entryDy=0;" parent="1" source="PUXEqd44bCyLoYofm2tb-4" target="PUXEqd44bCyLoYofm2tb-2" edge="1">
          <mxGeometry width="50" height="50" relative="1" as="geometry">
            <mxPoint x="469" y="460" as="sourcePoint" />
            <mxPoint x="519" y="410" as="targetPoint" />
          </mxGeometry>
        </mxCell>
        <mxCell id="PUXEqd44bCyLoYofm2tb-6" value="&lt;b&gt;Request &lt;/b&gt;- POST&lt;br&gt;&lt;div&gt;&lt;b&gt;Body &lt;br&gt;&lt;/b&gt;&lt;span&gt;webhookUrl&lt;/span&gt;&lt;/div&gt;&lt;div&gt;&lt;span&gt;message&lt;/span&gt;&lt;/div&gt;&lt;div&gt;&lt;span&gt;scheduledTimestamp&lt;br&gt;sender&lt;br&gt;recipient&lt;br&gt;&lt;/span&gt;&lt;/div&gt;&lt;div&gt;&lt;span&gt;recipientType (Channel/User)&lt;br&gt;&lt;/span&gt;&lt;/div&gt;" style="text;html=1;strokeColor=none;fillColor=none;align=center;verticalAlign=middle;whiteSpace=wrap;rounded=0;" parent="1" vertex="1">
          <mxGeometry x="80" y="510" width="180" height="170" as="geometry" />
        </mxCell>
        <mxCell id="PUXEqd44bCyLoYofm2tb-7" value="&lt;b&gt;&lt;font color=&quot;#ff0000&quot;&gt;Check&lt;/font&gt;&lt;/b&gt;&lt;br&gt;&lt;b&gt;Scheduled Timestamp&lt;/b&gt;&lt;br&gt;should be at least&amp;nbsp;&lt;br&gt;&lt;b&gt;10 sec&lt;/b&gt; more than &lt;b&gt;Current Timestamp&lt;/b&gt;&lt;br&gt;&amp;nbsp;" style="rounded=1;whiteSpace=wrap;html=1;" parent="1" vertex="1">
          <mxGeometry x="99" y="380" width="142" height="115" as="geometry" />
        </mxCell>
        <mxCell id="PUXEqd44bCyLoYofm2tb-10" value="" style="endArrow=classic;html=1;exitX=0.742;exitY=0.975;exitDx=0;exitDy=0;exitPerimeter=0;" parent="1" source="PUXEqd44bCyLoYofm2tb-2" edge="1">
          <mxGeometry width="50" height="50" relative="1" as="geometry">
            <mxPoint x="469" y="560" as="sourcePoint" />
            <mxPoint x="289" y="699" as="targetPoint" />
          </mxGeometry>
        </mxCell>
        <mxCell id="PUXEqd44bCyLoYofm2tb-11" value="&lt;b&gt;Response&lt;/b&gt;&lt;br&gt;CronID&lt;br&gt;CronName&lt;br&gt;and other details&lt;br&gt;to&lt;br&gt;be stored in cliq&lt;br&gt;storage" style="text;html=1;strokeColor=none;fillColor=none;align=center;verticalAlign=middle;whiteSpace=wrap;rounded=0;" parent="1" vertex="1">
          <mxGeometry x="299" y="525" width="120" height="140" as="geometry" />
        </mxCell>
        <mxCell id="PUXEqd44bCyLoYofm2tb-13" value="Cliq&lt;br&gt;Storage" style="shape=cylinder;whiteSpace=wrap;html=1;boundedLbl=1;backgroundOutline=1;" parent="1" vertex="1">
          <mxGeometry x="180" y="920" width="90" height="100" as="geometry" />
        </mxCell>
        <mxCell id="PUXEqd44bCyLoYofm2tb-16" value="Will store the&lt;br&gt;details about CRON and&amp;nbsp;scheduled message" style="text;html=1;strokeColor=none;fillColor=none;align=center;verticalAlign=middle;whiteSpace=wrap;rounded=0;" parent="1" vertex="1">
          <mxGeometry x="39" y="820" width="120" height="60" as="geometry" />
        </mxCell>
        <mxCell id="PUXEqd44bCyLoYofm2tb-30" style="edgeStyle=orthogonalEdgeStyle;rounded=0;orthogonalLoop=1;jettySize=auto;html=1;" parent="1" source="PUXEqd44bCyLoYofm2tb-17" target="PUXEqd44bCyLoYofm2tb-19" edge="1">
          <mxGeometry relative="1" as="geometry" />
        </mxCell>
        <mxCell id="PUXEqd44bCyLoYofm2tb-17" value="&lt;b&gt;Scheduled Cron&lt;/b&gt;" style="ellipse;whiteSpace=wrap;html=1;" parent="1" vertex="1">
          <mxGeometry x="569" y="150" width="120" height="80" as="geometry" />
        </mxCell>
        <mxCell id="PUXEqd44bCyLoYofm2tb-31" style="edgeStyle=orthogonalEdgeStyle;rounded=0;orthogonalLoop=1;jettySize=auto;html=1;entryX=0.5;entryY=1;entryDx=0;entryDy=0;" parent="1" source="PUXEqd44bCyLoYofm2tb-19" target="PUXEqd44bCyLoYofm2tb-17" edge="1">
          <mxGeometry relative="1" as="geometry" />
        </mxCell>
        <mxCell id="PUXEqd44bCyLoYofm2tb-19" value="&lt;b&gt;Incoming extension webhook handler&lt;/b&gt;&lt;br&gt;will post the message in channel or to user on scheduled&amp;nbsp;time" style="rounded=1;whiteSpace=wrap;html=1;" parent="1" vertex="1">
          <mxGeometry x="534" y="540" width="190" height="90" as="geometry" />
        </mxCell>
        <mxCell id="PUXEqd44bCyLoYofm2tb-22" value="&lt;b&gt;Request&lt;/b&gt; - POST&lt;br&gt;&lt;b&gt;Body&lt;/b&gt;&lt;br&gt;message&lt;br&gt;sender&lt;br&gt;recipient&lt;br&gt;&amp;nbsp;recipientType&lt;br&gt;cronId&lt;br&gt;cronName" style="text;html=1;strokeColor=none;fillColor=none;align=center;verticalAlign=middle;whiteSpace=wrap;rounded=0;" parent="1" vertex="1">
          <mxGeometry x="679" y="320" width="110" height="140" as="geometry" />
        </mxCell>
        <mxCell id="PUXEqd44bCyLoYofm2tb-28" value="&lt;b&gt;Default Response will be sent&lt;/b&gt;" style="text;html=1;strokeColor=none;fillColor=none;align=center;verticalAlign=middle;whiteSpace=wrap;rounded=0;" parent="1" vertex="1">
          <mxGeometry x="519" y="340" width="110" height="50" as="geometry" />
        </mxCell>
        <mxCell id="PUXEqd44bCyLoYofm2tb-29" value="" style="endArrow=classic;html=1;entryX=0.954;entryY=0.763;entryDx=0;entryDy=0;entryPerimeter=0;exitX=0;exitY=0.75;exitDx=0;exitDy=0;" parent="1" source="PUXEqd44bCyLoYofm2tb-19" target="PUXEqd44bCyLoYofm2tb-2" edge="1">
          <mxGeometry width="50" height="50" relative="1" as="geometry">
            <mxPoint x="529" y="580" as="sourcePoint" />
            <mxPoint x="529" y="410" as="targetPoint" />
          </mxGeometry>
        </mxCell>
        <mxCell id="PUXEqd44bCyLoYofm2tb-34" value="Text" style="text;html=1;strokeColor=none;fillColor=none;align=center;verticalAlign=middle;whiteSpace=wrap;rounded=0;" parent="1" vertex="1">
          <mxGeometry x="329" y="500" width="40" height="20" as="geometry" />
        </mxCell>
        <mxCell id="PUXEqd44bCyLoYofm2tb-35" value="&lt;b&gt;Request - &lt;/b&gt;DELETE&lt;br&gt;&lt;b&gt;Params - &lt;/b&gt;cronID&lt;br&gt;&lt;br&gt;will delete cron after execution" style="text;html=1;strokeColor=none;fillColor=none;align=center;verticalAlign=middle;whiteSpace=wrap;rounded=0;" parent="1" vertex="1">
          <mxGeometry x="419" y="420" width="150" height="90" as="geometry" />
        </mxCell>
        <mxCell id="PUXEqd44bCyLoYofm2tb-38" value="" style="endArrow=classic;html=1;entryX=0.6;entryY=1.02;entryDx=0;entryDy=0;entryPerimeter=0;exitX=0.432;exitY=1.033;exitDx=0;exitDy=0;exitPerimeter=0;" parent="1" source="PUXEqd44bCyLoYofm2tb-19" target="PUXEqd44bCyLoYofm2tb-13" edge="1">
          <mxGeometry width="50" height="50" relative="1" as="geometry">
            <mxPoint x="749" y="910" as="sourcePoint" />
            <mxPoint x="169" y="920" as="targetPoint" />
            <Array as="points">
              <mxPoint x="616" y="970" />
            </Array>
          </mxGeometry>
        </mxCell>
        <mxCell id="PUXEqd44bCyLoYofm2tb-40" value="&lt;b&gt;Delete&lt;/b&gt; Record after execution of cron from cliq storage." style="text;html=1;strokeColor=none;fillColor=none;align=center;verticalAlign=middle;whiteSpace=wrap;rounded=0;" parent="1" vertex="1">
          <mxGeometry x="619" y="750" width="140" height="60" as="geometry" />
        </mxCell>
        <mxCell id="PUXEqd44bCyLoYofm2tb-42" value="Node function which will create&amp;nbsp;&lt;br&gt;CRON to make POST request to incoming extension URL&lt;br&gt;with required details.." style="text;html=1;strokeColor=none;fillColor=none;align=center;verticalAlign=middle;whiteSpace=wrap;rounded=0;" parent="1" vertex="1">
          <mxGeometry x="310" y="160" width="130" height="100" as="geometry" />
        </mxCell>
      </root>
    </mxGraphModel>
  </diagram>
</mxfile>
